# AST/ASF file generated using VICON BodyLanguage
# -----------------------------------------------
:version 1.10
:name VICON
:units
  mass 1.0
  length 0.45
  angle deg
:documentation
   .ast/.asf automatically generated from VICON data using
   VICON BodyBuilder and BodyLanguage model FoxedUp or BRILLIANT.MOD
:root
   order TX TY TZ RX RY RZ
   axis XYZ
   position 0 0 0  
   orientation 0 0 0 
:bonedata
  begin
     id 1 
     name lhipjoint
     direction 0.700308 -0.549349 0.455834 
     length 2.59063 
     axis 0 0 0  XYZ
  end
  begin
     id 2 
     name lfemur
     direction 0.34202 -0.939693 0  
     length 6.31066  
     axis 0 0 20  XYZ
    dof rx ry rz
    limits (-160.0 20.0)
           (-70.0 70.0)
           (-60.0 70.0)
  end
  begin
     id 3 
     name ltibia
     direction 0.34202 -0.939693 0   
     length 7.36093   
     axis 0 0 20   XYZ
    dof rx
    limits (-10.0 170.0)
  end
  begin
     id 4 
     name lfoot
     direction 0.0905332 -0.248738 0.96433   
     length 2.0233   
     axis -90 7.62852e-016 20   XYZ
    dof rx rz
    limits (-45.0 90.0)
           (-70.0 20.0)
  end
  begin
     id 5 
     name ltoes
     direction 1.53573e-011 -4.21855e-011 1   
     length 1.01524   
     axis -90 7.62852e-016 20   XYZ
    dof rx
    limits (-90.0 20.0)
  end
  begin
     id 6 
     name rhipjoint
     direction -0.61416 -0.607328 0.503944   
     length 2.34332  
     axis 0 0 0  XYZ 
  end
  begin
     id 7 
     name rfemur
     direction -0.34202 -0.939693 0   
     length 6.58548   
     axis 0 0 -20   XYZ
    dof rx ry rz
    limits (-160.0 20.0)
           (-70.0 70.0)
           (-70.0 60.0)
  end
  begin
     id 8 
     name rtibia
     direction -0.34202 -0.939693 0   
     length 7.20707   
     axis 0 0 -20   XYZ
    dof rx
    limits (-10.0 170.0)
 end
 begin
     id 9 
     name rfoot
     direction -0.136772 -0.375778 0.916561   
     length 1.92184  
     axis -90 -7.62852e-016 -20   XYZ
    dof rx rz
    limits (-45.0 90.0)
           (-20.0 70.0)
  end
  begin
     id 10 
     name rtoes
     direction -1.53535e-011 -4.21828e-011 1   
     length 0.951089   
     axis -90 -7.62852e-016 -20   XYZ
    dof rx
    limits (-90.0 20.0)
  end
  begin
     id 11 
     name lowerback
     direction -0.0444974 0.988086 -0.147332   
     length 1.9609   
     axis 0 0 0   XYZ
    dof rx ry rz
    limits (-20.0 45.0)
           (-30.0 30.0)
           (-30.0 30.0)
  end
  begin
     id 12 
     name upperback
     direction 0.00613146 0.999513 0.0306081   
     length 1.94944   
     axis 0 0 0   XYZ
    dof rx ry rz
    limits (-20.0 45.0)
           (-30.0 30.0)
           (-30.0 30.0)
  end
  begin
     id 13 
     name thorax
     direction 0.0254621 0.994518 0.101418   
     length 2.0119   
     axis 0 0 0   XYZ
    dof rx ry rz
    limits (-20.0 45.0)
           (-30.0 30.0)
           (-30.0 30.0)
  end
  begin
     id 14 
     name lowerneck
     direction 0.0168698 0.977854 0.208608   
     length 1.6375   
     axis 0 0 0   XYZ
    dof rx ry rz
    limits (-20.0 45.0)
           (-30.0 30.0)
           (-30.0 30.0)
  end
  begin
     id 15 
     name upperneck
     direction -0.0283988 0.989338 -0.142843   
     length 1.6851   
     axis 0 0 0   XYZ
    dof rx ry rz
    limits (-20.0 45.0)
           (-30.0 30.0)
           (-30.0 30.0)
  end
  begin
     id 16
     name head
     direction -0.0129422 0.99741 -0.0707489  
     length 1.69029  
     axis 0 0 0   XYZ
    dof rx ry rz
    limits (-20.0 45.0)
           (-30.0 30.0)
           (-30.0 30.0)
  end
  begin
     id 17 
     name lclavicle
     direction 0.820295 0.564628 -0.0911715  
     length 3.16484  
     axis 0 0 0   XYZ
    dof ry rz
    limits (-20.0 10.0)
           (0.0 20.0)
  end
  begin
     id 18 
     name lhumerus
     direction 1 -4.48969e-011 1.00186e-027   
     length 5.17853   
     axis 180 -30 -90   XYZ
    dof rx ry rz
    limits (-60.0 90.0)
           (-90.0 90.0)
           (-90.0 90.0)
  end
  begin
     id 19
     name lradius
     direction 1 -4.48966e-011 -1.52922e-027   
     length 3.40399   
     axis 180 -30 -90   XYZ
    dof rx
    limits (-10.0 170.0)
  end
  begin
     id 20
     name lwrist
     direction 1 -4.48981e-011 -3.80893e-027   
     length 1.70199   
     axis 1.1049e-015 90 90   XYZ
    dof ry
    limits (-180.0 0.0)
 end
  begin
     id 21 
     name lhand
     direction 1 -4.48957e-011 -7.61786e-027   
     length 0.708964   
     axis 4.86085e-015 90 90   XYZ
    dof rx rz
    limits (-90.0 90.0)
           (-45.0 45.0)
  end
  begin
     id 22 
     name lfingers
     direction 1 -4.48929e-011 -1.52357e-026   
     length 0.571585   
     axis 9.7217e-015 90 90   XYZ
    dof rx
    limits (0.0 90.0)
  end
  begin
     id 23
     name lthumb
     direction 0.707107 -6.34905e-011 0.707107   
     length 0.820685   
     axis -90 45 2.85299e-015   XYZ
    dof rx rz
    limits (-45.0 45.0)
           (-45.0 45.0)
  end
  begin
     id 24 
     name rclavicle
     direction -0.858602 0.463947 -0.218075   
     length 3.35137  
     axis 0 0 0   XYZ 
    dof ry rz
    limits (-10.0 20.0)
           (-20.0 0.0)
  end
  begin
     id 25 
     name rhumerus
     direction -1 -4.48969e-011 -1.98511e-027  
     length 5.42351   
     axis 180 30 90   XYZ
    dof rx ry rz
    limits (-90.0 60.0)
           (-90.0 90.0)
           (-90.0 90.0)
  end
  begin
     id 26 
     name rradius
     direction -1 -4.48961e-011 -2.82624e-027   
     length 3.42066   
     axis 180 30 90   XYZ
    dof rx
    limits (-10.0 170.0)
  end
  begin
     id 27 
     name rwrist
     direction -1 -4.48966e-011 -3.80893e-027   
     length 1.71033   
     axis 1.1049e-015 -90 -90   XYZ
    dof ry
    limits (-180.0 0.0)
  end
  begin
     id 28
     name rhand
     direction -1 -4.48964e-011 -7.61786e-027   
     length 0.743608   
     axis 4.86085e-015 -90 -90   XYZ
    dof rx rz
    limits (-90.0 90.0)
           (-45.0 45.0)
  end
  begin
     id 29
     name rfingers
     direction -1 -4.48961e-011 -1.52357e-026   
     length 0.599516   
     axis 9.7217e-015 -90 -90   XYZ
    dof rx
    limits (0.0 90.0)
  end
  begin
     id 30
     name rthumb
     direction -0.707107 -6.34913e-011 0.707107   
     length 0.860789   
     axis -90 -45 -2.85299e-015   XYZ
    dof rx rz
    limits (-45.0 45.0)
           (-45.0 45.0)
  end
:hierarchy
  begin
    root lhipjoint rhipjoint lowerback
    lhipjoint lfemur
    lfemur ltibia
    ltibia lfoot
    lfoot ltoes
    rhipjoint rfemur
    rfemur rtibia
    rtibia rfoot
    rfoot rtoes
    lowerback upperback
    upperback thorax
    thorax lowerneck lclavicle rclavicle
    lowerneck upperneck
    upperneck head
    lclavicle lhumerus
    lhumerus lradius
    lradius lwrist
    lwrist lhand lthumb
    lhand lfingers
    rclavicle rhumerus
    rhumerus rradius
    rradius rwrist
    rwrist rhand rthumb
    rhand rfingers
  end

#!OML:ASF E:\mmandel\Project 1\Capture day 1\Session 2\Subject.ASF
:FULLY-SPECIFIED
:DEGREES
3229
root 10.3197 15.0307 -3.09524 714.161 78.0427 696.009
lowerback 16.9462 3.51811 -7.16689
upperback 3.35773 3.51104 0.21812
thorax -6.30878 1.90069 3.49986
lowerneck -15.573 1.06245 4.22718
upperneck 7.37842 1.22668 -5.80175
head 4.80396 0.344737 -2.39364
rclavicle 3.45885e-014 2.3059e-014
rhumerus -13.3795 5.3832 -82.9712
rradius 58.7394
rwrist -20.9371
rhand -11.4044 27.6106
rfingers 7.12502
rthumb 14.6309 -1.85327
lclavicle 3.45885e-014 2.3059e-014
lhumerus -11.5717 -30.8565 72.5933
lradius 61.5096
lwrist 26.2773
lhand -18.6658 -32.6808
lfingers 7.12502
lthumb 7.62776 -2.83837
rfemur -52.5034 -5.00176 11.3197
rtibia 62.2984
rfoot -22.2294 0.716265
rtoes -21.3114
lfemur -49.1753 17.1785 -17.7843
ltibia 63.3486
lfoot -28.2874 -0.31727
ltoes 9.84137
3230
root 10.3156 15.0241 -3.07178 713.929 77.9773 695.782
lowerback 17.0038 3.50259 -7.15375
upperback 3.31626 3.48239 0.170635
thorax -6.37777 1.88855 3.44449
lowerneck -15.4369 0.987419 4.36273
upperneck 7.15316 1.11493 -5.97406
head 4.70832 0.286527 -2.47784
rclavicle 7.15625e-015 -2.62396e-014
rhumerus -13.7962 5.50258 -83.141
rradius 59.017
rwrist -21.0239
rhand -11.2696 27.6888
rfingers 7.12502
rthumb 14.7608 -1.76564
lclavicle 7.15625e-015 -2.62396e-014
lhumerus -11.4464 -30.5341 72.3275
lradius 61.5387
lwrist 26.1651
lhand -18.3579 -32.4958
lfingers 7.12502
lthumb 7.92488 -2.66432
rfemur -52.261 -4.78836 11.1022
rtibia 61.7838
rfoot -22.1642 -0.0779576
rtoes -20.0428
lfemur -49.1638 17.2313 -17.5894
ltibia 63.3292
lfoot -28.2852 -0.205568
ltoes 9.11237
3231
root 10.3133 15.0337 -3.04862 714.059 77.9485 695.867
lowerback 16.9007 3.51891 -7.16192
upperback 3.3118 3.50654 0.117328
thorax -6.32668 1.89847 3.39058
lowerneck -15.1779 0.906631 4.29461
upperneck 6.86076 1.01479 -5.93978
head 4.57004 0.24379 -2.46194
rclavicle 5.40694e-014 8.74653e-015
rhumerus -14.2222 5.59047 -83.1885
rradius 59.4115
rwrist -21.1884
rhand -11.1718 27.6476
rfingers 7.12502
rthumb 14.855 -1.79983
lclavicle 5.40694e-014 8.74653e-015
lhumerus -11.3007 -30.2033 72.1699
lradius 61.5681
lwrist 26.0106
lhand -18.0052 -32.5784
lfingers 7.12502
lthumb 8.26529 -2.76012
rfemur -52.1184 -4.65975 10.8217
rtibia 61.2342
rfoot -21.9641 -0.798259
rtoes -18.1095
lfemur -49.1329 17.337 -17.5281
ltibia 63.2218
lfoot -28.2763 -0.238372
ltoes 8.85378
3232
root 10.3106 15.0446 -3.02653 713.673 77.965 695.469
lowerback 16.8777 3.53303 -7.06846
upperback 3.34891 3.54696 0.133374
thorax -6.27459 1.91461 3.3478
lowerneck -14.9995 0.859664 3.97796
upperneck 6.61733 0.984205 -5.68235
head 4.46109 0.240893 -2.33044
rclavicle 1.07344e-014 1.98785e-014
rhumerus -14.4645 5.60222 -83.1181
rradius 59.6503
rwrist -21.282
rhand -11.1027 27.6962
rfingers 7.12502
rthumb 14.9216 -1.7463
lclavicle 1.07344e-014 1.98785e-014
lhumerus -11.1014 -29.7323 72.1255
lradius 61.6076
lwrist 25.652
lhand -17.7232 -32.5664
lfingers 7.12502
lthumb 8.53742 -2.75903
rfemur -51.8735 -4.58355 10.6467
rtibia 60.6162
rfoot -21.8529 -1.50889
rtoes -16.8636
lfemur -49.0636 17.4156 -17.3747
ltibia 63.073
lfoot -28.1904 -0.310023
ltoes 9.04302
3233
root 10.311 15.0555 -3.00397 713.221 77.9718 695.074
lowerback 17.0505 3.52651 -6.98117
upperback 3.31735 3.53969 0.15503
thorax -6.39799 1.91339 3.31484
lowerneck -14.8118 0.844835 3.9481
upperneck 6.44433 0.982513 -5.79768
head 4.37826 0.23655 -2.36039
rclavicle -5.08889e-014 7.15625e-015
rhumerus -14.7655 5.58214 -83.1152
rradius 59.7724
rwrist -21.1928
rhand -11.0618 27.8612
rfingers 7.12502
rthumb 14.961 -1.57838
lclavicle -5.08889e-014 7.15625e-015
lhumerus -11.0467 -29.1327 72.1499
lradius 61.6796
lwrist 25.3487
lhand -17.4663 -32.4442
lfingers 7.12502
lthumb 8.78537 -2.64705
rfemur -51.5034 -4.52339 10.4981
rtibia 59.9611
rfoot -21.7846 -2.31366
rtoes -17.0607
lfemur -48.8776 17.4845 -17.1822
ltibia 62.8804
lfoot -28.0886 -0.360967
ltoes 8.95953
3234
root 10.3178 15.072 -2.98044 713.331 77.9366 695.257
lowerback 17.143 3.51006 -7.00779
upperback 3.24718 3.50014 0.137881
thorax -6.51996 1.89861 3.31462
lowerneck -14.5113 0.804668 4.09806
upperneck 6.26813 0.937783 -6.13487
head 4.27667 0.20436 -2.49186
rclavicle 5.68524e-014 -1.35174e-014
rhumerus -15.2291 5.73921 -83.1603
rradius 59.9911
rwrist -21.1445
rhand -11.0036 28.1062
rfingers 7.12502
rthumb 15.017 -1.32919
lclavicle 5.68524e-014 -1.35174e-014
lhumerus -11.2055 -28.4811 72.1946
lradius 61.8632
lwrist 25.2704
lhand -17.3584 -32.3373
lfingers 7.12502
lthumb 8.88954 -2.54458
rfemur -51.0735 -4.46494 10.2281
rtibia 59.3027
rfoot -21.8001 -2.95413
rtoes -16.7346
lfemur -48.5911 17.5711 -17.0911
ltibia 62.6614
lfoot -28.0505 -0.400017
ltoes 8.74068
3235
root 10.32 15.0798 -2.95433 713.409 77.9409 695.34
lowerback 17.1381 3.47947 -6.99998
upperback 3.24084 3.46032 0.120664
thorax -6.51812 1.87908 3.30132
lowerneck -14.5394 0.757509 4.19373
upperneck 6.19302 0.880253 -6.38798
head 4.25734 0.164345 -2.59061
rclavicle 1.19271e-015 7.95139e-016
rhumerus -15.5347 5.99544 -83.1505
rradius 60.2361
rwrist -21.24
rhand -10.8781 28.2529
rfingers 7.12502
rthumb 15.1379 -1.17341
lclavicle 1.19271e-015 7.95139e-016
lhumerus -11.2199 -27.7876 72.2023
lradius 62.0723
lwrist 25.2991
lhand -17.4013 -32.114
lfingers 7.12502
lthumb 8.84812 -2.31945
rfemur -50.7282 -4.42919 9.96318
rtibia 58.6942
rfoot -21.9642 -3.35974
rtoes -15.0753
lfemur -48.4629 17.6153 -17.002
ltibia 62.5098
lfoot -28.0248 -0.496352
ltoes 9.08591
3236
root 10.311 15.0799 -2.92596 713.323 77.9809 695.16
lowerback 17.158 3.45195 -6.92422
upperback 3.25427 3.43697 0.115695
thorax -6.50727 1.86582 3.25844
lowerneck -14.8746 0.680139 4.24504
upperneck 6.29614 0.777844 -6.5325
head 4.33854 0.101007 -2.65416
rclavicle -3.57812e-014 2.62396e-014
rhumerus -15.6301 6.13597 -83.0837
rradius 60.4441
rwrist -21.3231
rhand -10.7998 28.0903
rfingers 7.12502
rthumb 15.2134 -1.33039
lclavicle -3.57812e-014 2.62396e-014
lhumerus -10.971 -27.0202 72.1962
lradius 62.1391
lwrist 25.3036
lhand -17.3384 -31.9849
lfingers 7.12502
lthumb 8.90885 -2.19296
rfemur -50.6181 -4.39972 9.76792
rtibia 58.164
rfoot -22.0958 -3.79898
rtoes -13.8132
lfemur -48.5507 17.5552 -16.86
ltibia 62.4095
lfoot -27.8705 -0.492307
ltoes 9.57546
3237
root 10.3006 15.0838 -2.89437 713.306 77.9929 695.038
lowerback 17.1029 3.42809 -6.86096
upperback 3.27635 3.42161 0.0990802
thorax -6.44736 1.85515 3.21171
lowerneck -14.961 0.673228 4.04302
upperneck 6.31252 0.78898 -6.36356
head 4.35626 0.110131 -2.56795
rclavicle 4.13472e-014 -7.95139e-015
rhumerus -15.6678 6.14167 -83.081
rradius 60.5729
rwrist -21.2814
rhand -10.703 27.9842
rfingers 7.12502
rthumb 15.3065 -1.42932
lclavicle 4.13472e-014 -7.95139e-015
lhumerus -10.6743 -26.3378 72.1016
lradius 62.0337
lwrist 25.31
lhand -17.4939 -32.4159
lfingers 7.12502
lthumb 8.75872 -2.61764
rfemur -50.5813 -4.35502 9.60846
rtibia 57.6734
rfoot -22.1175 -4.39843
rtoes -14.1855
lfemur -48.6344 17.5193 -16.7028
ltibia 62.2973
lfoot -27.6467 -0.370896
ltoes 9.549
3238
root 10.297 15.0919 -2.85891 713.592 77.9926 695.306
lowerback 16.8534 3.39444 -6.80994
upperback 3.41763 3.40973 0.00442294
thorax -6.14969 1.83872 3.09945
lowerneck -14.8357 0.672257 3.81249
upperneck 6.06398 0.804032 -6.14465
head 4.25801 0.129509 -2.45876
rclavicle 2.22639e-014 -4.69132e-014
rhumerus -15.6509 6.11083 -83.1807
rradius 60.6527
rwrist -21.2268
rhand -10.5676 28.1584
rfingers 7.12502
rthumb 15.437 -1.24518
lclavicle 2.22639e-014 -4.69132e-014
lhumerus -10.205 -25.8548 71.8004
lradius 61.8011
lwrist 25.4419
lhand -17.9437 -33.1392
lfingers 7.12502
lthumb 8.32468 -3.32326
rfemur -50.4388 -4.32032 9.38273
rtibia 57.2015
rfoot -22.1273 -4.97875
rtoes -14.5463
lfemur -48.5457 17.6286 -16.618
ltibia 62.1259
lfoot -27.5178 -0.461868
ltoes 9.47826
3239
root 10.2982 15.101 -2.82381 714.066 77.9474 695.817
lowerback 17.0703 3.44512 -6.99152
upperback 3.29296 3.42059 0.0409559
thorax -6.41499 1.85573 3.22498
lowerneck -14.6891 0.541587 3.72969
upperneck 5.95285 0.668532 -6.36318
head 4.1947 0.0520718 -2.5228
rclavicle 7.55382e-015 -3.18055e-015
rhumerus -16.1406 6.32984 -83.0984
rradius 60.8613
rwrist -21.295
rhand -10.4962 28.2804
rfingers 7.12502
rthumb 15.5058 -1.11779
lclavicle 7.55382e-015 -3.18055e-015
lhumerus -10.2671 -25.2501 71.9641
lradius 61.745
lwrist 25.5254
lhand -18.1077 -33.1903
lfingers 7.12502
lthumb 8.16635 -3.36806
rfemur -50.203 -4.24345 9.07993
rtibia 56.7339
rfoot -22.1992 -5.38066
rtoes -13.7465
lfemur -48.3263 17.7567 -16.5591
ltibia 61.895
lfoot -27.4307 -0.585127
ltoes 9.47459
3240
root 10.3014 15.1138 -2.78775 714.145 77.8869 695.934
lowerback 17.1204 3.43515 -7.0244
upperback 3.32253 3.40056 0.0498229
thorax -6.41011 1.84641 3.25645
lowerneck -14.684 0.541271 3.95528
upperneck 5.71947 0.666363 -6.84085
head 4.12604 0.032751 -2.70716
rclavicle 4.37326e-015 -1.03368e-014
rhumerus -16.3303 6.54666 -83.098
rradius 61.0449
rwrist -21.3592
rhand -10.4552 28.3134
rfingers 7.12502
rthumb 15.5453 -1.08175
lclavicle 4.37326e-015 -1.03368e-014
lhumerus -10.2678 -24.3758 71.9852
lradius 62.0004
lwrist 25.5987
lhand -18.1463 -32.747
lfingers 7.12502
lthumb 8.12918 -2.92337
rfemur -49.9077 -4.14335 8.86278
rtibia 56.2659
rfoot -22.3017 -5.75391
rtoes -13.2705
lfemur -48.0682 17.8339 -16.391
ltibia 61.6386
lfoot -27.3288 -0.547587
ltoes 9.16948
3241
root 10.3016 15.1269 -2.74899 713.792 77.9019 695.586
lowerback 17.1952 3.3753 -6.90596
upperback 3.30185 3.33593 0.0454541
thorax -6.45923 1.81438 3.19666
lowerneck -14.6564 0.670593 4.06838
upperneck 5.63041 0.843168 -7.11416
head 4.10692 0.109041 -2.79656
rclavicle 4.09496e-014 -1.82882e-014
rhumerus -16.5111 6.71691 -83.1772
rradius 61.1615
rwrist -21.3633
rhand -10.4787 28.305
rfingers 7.12502
rthumb 15.5226 -1.09189
lclavicle 4.09496e-014 -1.82882e-014
lhumerus -10.3374 -23.5927 71.9969
lradius 62.1235
lwrist 25.7173
lhand -18.4381 -32.6513
lfingers 7.12502
lthumb 7.84754 -2.81694
rfemur -49.6792 -4.09969 8.74693
rtibia 55.8683
rfoot -22.2862 -6.21083
rtoes -13.0694
lfemur -47.8981 17.8514 -16.1359
ltibia 61.4349
lfoot -27.2353 -0.46592
ltoes 8.49326
